<svg width="110" height="35" viewBox="0 0 110 35" fill="none" xmlns="http://www.w3.org/2000/svg">
<rect x="0.5" y="0.5" width="109" height="34" rx="17" fill="white" stroke="#F2F2F2"/>
<g clip-path="url(#clip0_4_113)">
<path d="M24.75 7.57812C22.9141 6.44531 20.8047 5.78125 18.5 5.78125V7.57812H24.75Z" fill="#ED1C24"/>
<path d="M18.5 9.375H26.9375C26.2734 8.71094 25.5313 8.08594 24.75 7.57812H18.5V9.375Z" fill="white"/>
<path d="M18.5 11.1719H28.3828C27.9531 10.5078 27.4844 9.92187 26.9766 9.375H18.5V11.1719Z" fill="#ED1C24"/>
<path d="M18.5 12.9688H29.3203C29.0469 12.3438 28.7344 11.7188 28.3828 11.1719H18.5V12.9688Z" fill="white"/>
<path d="M18.5 14.7656H29.9062C29.75 14.1406 29.5547 13.5547 29.3203 12.9688H18.5V14.7656Z" fill="#ED1C24"/>
<path d="M18.5 16.6016H30.1797C30.1406 15.9766 30.0234 15.3906 29.9062 14.8047H18.5V16.6016Z" fill="white"/>
<path d="M30.1797 16.6016H18.5V17.5H6.78125C6.78125 17.8125 6.78125 18.0859 6.82031 18.3984H30.1797C30.2188 18.0859 30.2188 17.8125 30.2188 17.5C30.2188 17.1875 30.2188 16.875 30.1797 16.6016Z" fill="#ED1C24"/>
<path d="M7.09375 20.1953H29.9062C30.0625 19.6094 30.1406 19.0234 30.1797 18.3984H6.82031C6.85938 18.9844 6.97656 19.6094 7.09375 20.1953Z" fill="white"/>
<path d="M7.67969 21.9922H29.3203C29.5547 21.4062 29.75 20.8203 29.9062 20.1953H7.09375C7.25 20.8203 7.44531 21.4062 7.67969 21.9922Z" fill="#ED1C24"/>
<path d="M8.61719 23.7891H28.3828C28.7344 23.2031 29.0469 22.6172 29.3203 21.9922H7.67969C7.95312 22.6172 8.26562 23.2031 8.61719 23.7891Z" fill="white"/>
<path d="M10.0234 25.5859H26.9766C27.4844 25.0391 27.9922 24.4141 28.3828 23.7891H8.61719C9.00781 24.4531 9.51563 25.0391 10.0234 25.5859Z" fill="#ED1C24"/>
<path d="M12.2109 27.3828H24.7891C25.6094 26.875 26.3125 26.25 26.9766 25.5859H10.0234C10.6875 26.2891 11.4297 26.875 12.2109 27.3828Z" fill="white"/>
<path d="M18.5 29.2188C20.8047 29.2188 22.9531 28.5547 24.7891 27.3828H12.2109C14.0469 28.5547 16.1953 29.2188 18.5 29.2188Z" fill="#ED1C24"/>
<path d="M12.25 7.57812C11.4297 8.08594 10.6875 8.71094 10.0234 9.375C9.47656 9.92188 9.00781 10.5469 8.61719 11.1719C8.26562 11.7578 7.91406 12.3438 7.67969 12.9688C7.44531 13.5547 7.25 14.1406 7.09375 14.7656C6.9375 15.3516 6.85937 15.9375 6.82031 16.5625C6.78125 16.875 6.78125 17.1875 6.78125 17.5H18.5V5.78125C16.1953 5.78125 14.0859 6.44531 12.25 7.57812Z" fill="#428BC1"/>
<path d="M15.7656 6.17188L15.9609 6.75781H16.5469L16.0781 7.14844L16.2344 7.73438L15.7656 7.38281L15.2969 7.73438L15.4531 7.14844L14.9844 6.75781H15.5703L15.7656 6.17188Z" fill="white"/>
<path d="M17.3281 8.51562L17.5234 9.10156H18.1094L17.6406 9.49219L17.7969 10.0781L17.3281 9.72656L16.8594 10.0781L17.0156 9.49219L16.5469 9.10156H17.1328L17.3281 8.51562Z" fill="white"/>
<path d="M14.2031 8.51562L14.3984 9.10156H14.9844L14.5156 9.49219L14.6719 10.0781L14.2031 9.72656L13.7344 10.0781L13.8906 9.49219L13.4219 9.10156H14.0078L14.2031 8.51562Z" fill="white"/>
<path d="M15.7656 10.8594L15.9609 11.4453H16.5469L16.0781 11.8359L16.2344 12.4219L15.7656 12.0703L15.2969 12.4219L15.4531 11.8359L14.9844 11.4453H15.5703L15.7656 10.8594Z" fill="white"/>
<path d="M12.6406 10.8594L12.8359 11.4453H13.4219L12.9531 11.8359L13.1094 12.4219L12.6406 12.0703L12.1719 12.4219L12.3281 11.8359L11.8594 11.4453H12.4453L12.6406 10.8594Z" fill="white"/>
<path d="M9.51562 10.8594L9.71094 11.4453H10.2969L9.82813 11.8359L9.98437 12.4219L9.51562 12.0703L9.04688 12.4219L9.20312 11.8359L8.73438 11.4453H9.32031L9.51562 10.8594Z" fill="white"/>
<path d="M17.3281 13.2031L17.5234 13.7891H18.1094L17.6406 14.1797L17.7969 14.7656L17.3281 14.4141L16.8594 14.7656L17.0156 14.1797L16.5469 13.7891H17.1328L17.3281 13.2031Z" fill="white"/>
<path d="M14.2031 13.2031L14.3984 13.7891H14.9844L14.5156 14.1797L14.6719 14.7656L14.2031 14.4141L13.7344 14.7656L13.8906 14.1797L13.4219 13.7891H14.0078L14.2031 13.2031Z" fill="white"/>
<path d="M11.0781 13.2031L11.2734 13.7891H11.8594L11.3906 14.1797L11.5469 14.7656L11.0781 14.4141L10.6094 14.7656L10.7656 14.1797L10.2969 13.7891H10.8828L11.0781 13.2031Z" fill="white"/>
<path d="M15.7656 15.5469L15.9609 16.1328H16.5469L16.0781 16.5234L16.2344 17.1094L15.7656 16.7578L15.2969 17.1094L15.4531 16.5234L14.9844 16.1328H15.5703L15.7656 15.5469Z" fill="white"/>
<path d="M12.6406 15.5469L12.8359 16.1328H13.4219L12.9531 16.5234L13.1094 17.1094L12.6406 16.7578L12.1719 17.1094L12.3281 16.5234L11.8594 16.1328H12.4453L12.6406 15.5469Z" fill="white"/>
<path d="M9.51562 15.5469L9.71094 16.1328H10.2969L9.82813 16.5234L9.98437 17.1094L9.51562 16.7578L9.04688 17.1094L9.20312 16.5234L8.73438 16.1328H9.32031L9.51562 15.5469Z" fill="white"/>
<path d="M10.6094 10.0781L11.0781 9.72656L11.5469 10.0781L11.3516 9.49219L11.8203 9.10156H11.2344L11.0781 8.51562L10.8828 9.10156H10.3359L10.8047 9.45312L10.6094 10.0781Z" fill="white"/>
<path d="M7.48437 14.7656L7.95312 14.4141L8.42187 14.7656L8.22656 14.1797L8.69531 13.7891H8.14844L7.95312 13.2031L7.75781 13.7891H7.36719C7.36719 13.8281 7.32812 13.8672 7.32812 13.9062L7.64062 14.1406L7.48437 14.7656Z" fill="white"/>
</g>
<path d="M39.7715 23.084C42.2775 23.084 43.7895 21.628 43.7895 18.814V13.2H42.7815V18.772C42.7815 21.096 41.6895 22.16 39.7715 22.16C37.8675 22.16 36.7755 21.096 36.7755 18.772V13.2H35.7395V18.814C35.7395 21.628 37.2655 23.084 39.7715 23.084ZM49.6134 23.084C52.1194 23.084 53.2674 21.852 53.2674 20.41C53.2674 16.84 47.2334 18.464 47.2334 15.776C47.2334 14.796 48.0314 13.998 49.8234 13.998C50.6914 13.998 51.6714 14.264 52.5114 14.81L52.8614 13.984C52.0774 13.438 50.9294 13.116 49.8234 13.116C47.3314 13.116 46.2114 14.362 46.2114 15.804C46.2114 19.43 52.2454 17.778 52.2454 20.466C52.2454 21.432 51.4474 22.202 49.6134 22.202C48.3254 22.202 47.0794 21.698 46.3794 21.012L45.9734 21.81C46.7014 22.566 48.1434 23.084 49.6134 23.084ZM55.5247 23H59.5147C62.6507 23 64.7647 20.984 64.7647 18.1C64.7647 15.216 62.6507 13.2 59.5147 13.2H55.5247V23ZM56.5607 22.104V14.096H59.4587C62.0627 14.096 63.7427 15.748 63.7427 18.1C63.7427 20.452 62.0627 22.104 59.4587 22.104H56.5607ZM77.1112 20.41C77.1112 18.534 75.4452 18.086 73.8632 17.708V13.998C74.6752 14.04 75.5712 14.306 76.3552 14.81L76.7052 13.984C75.9632 13.466 74.9132 13.158 73.8632 13.116V11.52H73.1632V13.13C71.0212 13.298 70.0552 14.46 70.0552 15.804C70.0552 17.652 71.6232 18.128 73.1632 18.506V22.188C71.9872 22.118 70.8672 21.642 70.2232 21.012L69.8172 21.81C70.5032 22.51 71.7912 23.014 73.1632 23.084V24.68H73.8632V23.07C76.0892 22.944 77.1112 21.768 77.1112 20.41ZM71.0772 15.776C71.0772 14.894 71.7212 14.152 73.1632 14.026V17.526C72.0152 17.232 71.0772 16.84 71.0772 15.776ZM73.8632 22.188V18.688C75.0672 18.982 76.0892 19.36 76.0892 20.466C76.0892 21.362 75.4032 22.076 73.8632 22.188Z" fill="black"/>
<path d="M96.6328 15.5H95.9004C95.8506 15.5 95.8037 15.5244 95.7744 15.5645L93 19.3887L90.2256 15.5645C90.1963 15.5244 90.1494 15.5 90.0996 15.5H89.3672C89.3037 15.5 89.2666 15.5723 89.3037 15.624L92.7471 20.3711C92.8721 20.543 93.1279 20.543 93.252 20.3711L96.6953 15.624C96.7334 15.5723 96.6963 15.5 96.6328 15.5Z" fill="black"/>
<defs>
<clipPath id="clip0_4_113">
<rect width="25" height="25" fill="white" transform="translate(6 5)"/>
</clipPath>
</defs>
</svg>
